<svg width="35" height="35" viewBox="0 0 35 35" fill="none" xmlns="http://www.w3.org/2000/svg">
<path d="M25.7031 1.09375H9.29688C8.42693 1.09473 7.5929 1.44074 6.97776 2.05589C6.36262 2.67103 6.0166 3.50506 6.01562 4.375V31.7188C6.01628 32.2987 6.24695 32.8547 6.65705 33.2648C7.06714 33.6749 7.62316 33.9056 8.20312 33.9062H26.7969C27.3768 33.9056 27.9329 33.6749 28.343 33.2648C28.753 32.8547 28.9837 32.2987 28.9844 31.7188V4.375C28.9834 3.50506 28.6374 2.67103 28.0222 2.05589C27.4071 1.44074 26.5731 1.09473 25.7031 1.09375ZM26.7969 31.7188H8.20312V16.4062H26.7969V31.7188ZM26.7969 14.2188H8.20312V4.375C8.20347 4.08503 8.31881 3.80702 8.52386 3.60198C8.7289 3.39694 9.0069 3.28159 9.29688 3.28125H25.7031C25.9931 3.28159 26.2711 3.39694 26.4761 3.60198C26.6812 3.80702 26.7965 4.08503 26.7969 4.375V14.2188Z" fill="#1FA4AC"/>
<path d="M12.0312 19.1406H9.84375V25.7031H12.0312V19.1406Z" fill="#1FA4AC"/>
<path d="M12.0312 7.10938H9.84375V11.4844H12.0312V7.10938Z" fill="#1FA4AC"/>
</svg>
