<svg width="33" height="33" viewBox="0 0 33 33" fill="none" xmlns="http://www.w3.org/2000/svg">
<path d="M32.1 25.4574H27.075V10.1574H32.1C32.5968 10.1574 33 9.75424 33 9.25744C33 8.76064 32.5968 8.35744 32.1 8.35744H27.0294C26.8548 6.61864 26.1666 4.47544 25.3182 3.14704L25.0986 2.80324C24.5046 1.87384 23.6388 1.34044 22.725 1.34044C21.8112 1.34044 20.9454 1.87384 20.3508 2.80324L20.133 3.14584C19.2834 4.47424 18.5958 6.61744 18.4206 8.35684H14.5794C14.4048 6.61804 13.7178 4.47484 12.8688 3.14644L12.6492 2.80264C12.0552 1.87324 11.19 1.33984 10.2756 1.33984C9.3612 1.33984 8.496 1.87324 7.9014 2.80264L7.683 3.14524C6.8334 4.47364 6.1464 6.61684 5.9718 8.35624H0.9C0.4032 8.35624 0 8.75944 0 9.25624C0 9.75304 0.4032 10.1562 0.9 10.1562H5.925V25.4568H0.9C0.4032 25.4568 0 25.86 0 26.3568C0 26.8536 0.4032 27.2568 0.9 27.2568H5.925V27.7584C5.925 29.9088 7.6746 31.6584 9.825 31.6584H10.725C12.8754 31.6584 14.625 29.9088 14.625 27.7584V27.2568H18.375V27.7596C18.375 29.91 20.1246 31.6596 22.275 31.6596H23.175C25.3254 31.6596 27.075 29.91 27.075 27.7596V27.2568H32.1C32.5968 27.2568 33 26.8536 33 26.3568C33 25.86 32.5968 25.4574 32.1 25.4574ZM12.825 27.7602C12.825 28.9182 11.883 29.8602 10.725 29.8602H9.825C8.667 29.8602 7.725 28.9182 7.725 27.7602V9.16024C7.725 7.67584 8.4 5.36644 9.1992 4.11604L9.4176 3.77344C9.6744 3.37204 9.9864 3.14164 10.275 3.14164C10.563 3.14164 10.8756 3.37204 11.1318 3.77284L11.3514 4.11664C12.15 5.36644 12.825 7.67644 12.825 9.16024V27.7602ZM14.625 25.4574V10.1574H18.375V25.4574H14.625ZM25.275 27.7602C25.275 28.9182 24.333 29.8602 23.175 29.8602H22.275C21.117 29.8602 20.175 28.9182 20.175 27.7602V9.16024C20.175 7.67584 20.85 5.36644 21.6492 4.11604L21.867 3.77344C22.1244 3.37204 22.4364 3.14164 22.725 3.14164C23.0136 3.14164 23.3256 3.37204 23.5818 3.77284L23.8014 4.11664C24.6 5.36644 25.275 7.67644 25.275 9.16024V27.7602ZM11.475 26.3574C11.475 27.0204 10.938 27.5574 10.275 27.5574C9.612 27.5574 9.075 27.0204 9.075 26.3574C9.075 25.695 9.612 25.1574 10.275 25.1574C10.938 25.1574 11.475 25.6944 11.475 26.3574ZM23.925 26.3574C23.925 27.0204 23.388 27.5574 22.725 27.5574C22.062 27.5574 21.525 27.0204 21.525 26.3574C21.525 25.695 22.062 25.1574 22.725 25.1574C23.388 25.1574 23.925 25.6944 23.925 26.3574ZM11.475 9.25744C11.475 9.92044 10.938 10.4574 10.275 10.4574C9.612 10.4574 9.075 9.92044 9.075 9.25744C9.075 8.59444 9.612 8.05744 10.275 8.05744C10.938 8.05744 11.475 8.59444 11.475 9.25744ZM23.925 9.25744C23.925 9.92044 23.388 10.4574 22.725 10.4574C22.062 10.4574 21.525 9.92044 21.525 9.25744C21.525 8.59444 22.062 8.05744 22.725 8.05744C23.388 8.05744 23.925 8.59444 23.925 9.25744Z" fill="#1FA4AC"/>
</svg>
