<svg width="33" height="33" viewBox="0 0 33 33" fill="none" xmlns="http://www.w3.org/2000/svg">
<g clip-path="url(#clip0_11_146)">
<path d="M22.6875 2.0625C23.2345 2.0625 23.7591 2.2798 24.1459 2.66659C24.5327 3.05339 24.75 3.57799 24.75 4.125V28.875C24.75 29.422 24.5327 29.9466 24.1459 30.3334C23.7591 30.7202 23.2345 30.9375 22.6875 30.9375H10.3125C9.76549 30.9375 9.24089 30.7202 8.85409 30.3334C8.4673 29.9466 8.25 29.422 8.25 28.875V4.125C8.25 3.57799 8.4673 3.05339 8.85409 2.66659C9.24089 2.2798 9.76549 2.0625 10.3125 2.0625H22.6875ZM10.3125 0C9.21848 0 8.16927 0.434597 7.39568 1.20818C6.6221 1.98177 6.1875 3.03098 6.1875 4.125V28.875C6.1875 29.969 6.6221 31.0182 7.39568 31.7918C8.16927 32.5654 9.21848 33 10.3125 33H22.6875C23.7815 33 24.8307 32.5654 25.6043 31.7918C26.3779 31.0182 26.8125 29.969 26.8125 28.875V4.125C26.8125 3.03098 26.3779 1.98177 25.6043 1.20818C24.8307 0.434597 23.7815 0 22.6875 0L10.3125 0Z" fill="#1FA4AC"/>
<path d="M16.5 28.875C17.047 28.875 17.5716 28.6577 17.9584 28.2709C18.3452 27.8841 18.5625 27.3595 18.5625 26.8125C18.5625 26.2655 18.3452 25.7409 17.9584 25.3541C17.5716 24.9673 17.047 24.75 16.5 24.75C15.953 24.75 15.4284 24.9673 15.0416 25.3541C14.6548 25.7409 14.4375 26.2655 14.4375 26.8125C14.4375 27.3595 14.6548 27.8841 15.0416 28.2709C15.4284 28.6577 15.953 28.875 16.5 28.875Z" fill="#1FA4AC"/>
</g>
<defs>
<clipPath id="clip0_11_146">
<rect width="33" height="33" fill="white"/>
</clipPath>
</defs>
</svg>
