<svg width="38" height="38" viewBox="0 0 38 38" fill="none" xmlns="http://www.w3.org/2000/svg">
<path d="M9.5 11.875H1.1875C0.530813 11.875 0 12.4058 0 13.0625C0 13.7192 0.530813 14.25 1.1875 14.25H9.5C10.1567 14.25 10.6875 13.7192 10.6875 13.0625C10.6875 12.4058 10.1567 11.875 9.5 11.875Z" fill="#1FA4AC"/>
<path d="M20.1875 15.4375H16.625C15.9683 15.4375 15.4375 15.9683 15.4375 16.625C15.4375 17.2817 15.9683 17.8125 16.625 17.8125H20.1875C20.8442 17.8125 21.375 17.2817 21.375 16.625C21.375 15.9683 20.8442 15.4375 20.1875 15.4375Z" fill="#1FA4AC"/>
<path d="M33.516 7.125H16.625C15.9683 7.125 15.4375 7.65581 15.4375 8.3125C15.4375 8.96919 15.9683 9.5 16.625 9.5H33.516C34.0919 9.5 35.625 9.5 35.625 12.8286V18.0987C35.625 21.375 34.1466 21.375 33.516 21.375H32.0625C31.4058 21.375 30.875 21.9058 30.875 22.5625V27.1225C30.875 28.5 30.2563 28.5 30.0533 28.5H25.6785C24.795 28.5 23.75 27.7804 23.75 27.1724V19C23.75 18.3433 23.2192 17.8125 22.5625 17.8125C21.9058 17.8125 21.375 18.3433 21.375 19V27.1724C21.375 29.2909 23.6467 30.875 25.6785 30.875H30.0533C31.9948 30.875 33.25 29.4025 33.25 27.1225V23.75H33.516C34.8638 23.75 38 23.199 38 18.0987V12.8286C38 7.68075 34.8638 7.125 33.516 7.125Z" fill="#1FA4AC"/>
<path d="M20.1875 15.4375C19.5308 15.4375 19 15.9683 19 16.625C19 17.2817 19.5308 17.8125 20.1875 17.8125C20.9534 17.8125 21.375 18.2341 21.375 19C21.375 19.6567 21.9058 20.1875 22.5625 20.1875C23.2192 20.1875 23.75 19.6567 23.75 19C23.75 16.9361 22.2514 15.4375 20.1875 15.4375Z" fill="#1FA4AC"/>
<path d="M16.7295 15.4173C16.0645 15.4173 15.4375 14.8568 15.4375 14.2655V10.6804C15.4375 10.1199 16.1726 9.52734 16.8684 9.52734C17.5251 9.52734 18.0559 8.99653 18.0559 8.33984C18.0559 7.68316 17.5251 7.15234 16.8684 7.15234C14.8414 7.15234 13.0625 8.80059 13.0625 10.6804V14.2643C13.0625 16.1762 14.7416 17.7912 16.7295 17.7912C17.3862 17.7912 17.917 17.2615 17.917 16.6048C17.917 15.9482 17.3862 15.4173 16.7295 15.4173Z" fill="#1FA4AC"/>
<path d="M14.25 14.25H11.2539C11.1114 14.25 10.8371 14.1455 10.6875 14.0458V10.9107C10.8336 10.8039 11.115 10.6875 11.2539 10.6875H14.25C14.9067 10.6875 15.4375 10.1567 15.4375 9.5C15.4375 8.84331 14.9067 8.3125 14.25 8.3125H11.2539C10.0546 8.3125 8.3125 9.24587 8.3125 10.7089V14.2595C8.3125 15.7249 10.0249 16.625 11.2539 16.625H14.25C14.9067 16.625 15.4375 16.0942 15.4375 15.4375C15.4375 14.7808 14.9067 14.25 14.25 14.25Z" fill="#1FA4AC"/>
<path d="M28.5 15.4375H26.125C25.4683 15.4375 24.9375 15.9683 24.9375 16.625C24.9375 17.2817 25.4683 17.8125 26.125 17.8125H28.5C29.1567 17.8125 29.6875 17.2817 29.6875 16.625C29.6875 15.9683 29.1567 15.4375 28.5 15.4375Z" fill="#1FA4AC"/>
<path d="M28.5 11.875H26.125C25.4683 11.875 24.9375 12.4058 24.9375 13.0625C24.9375 13.7192 25.4683 14.25 26.125 14.25H28.5C29.1567 14.25 29.6875 13.7192 29.6875 13.0625C29.6875 12.4058 29.1567 11.875 28.5 11.875Z" fill="#1FA4AC"/>
<path d="M32.0625 7.125C31.4058 7.125 30.875 7.65581 30.875 8.3125V22.5625C30.875 23.2192 31.4058 23.75 32.0625 23.75C32.7192 23.75 33.25 23.2192 33.25 22.5625V8.3125C33.25 7.65581 32.7192 7.125 32.0625 7.125Z" fill="#1FA4AC"/>
<path d="M16.625 15.4375C15.9683 15.4375 15.4375 15.9683 15.4375 16.625V29.6875C15.4375 30.3442 15.9683 30.875 16.625 30.875C17.2817 30.875 17.8125 30.3442 17.8125 29.6875V16.625C17.8125 15.9683 17.2817 15.4375 16.625 15.4375Z" fill="#1FA4AC"/>
</svg>
