<svg width="28" height="29" viewBox="0 0 28 29" fill="none" xmlns="http://www.w3.org/2000/svg">
<path d="M8.40566 19.0943H23.8337C25.5831 19.0943 27.0102 17.6162 27.0102 15.8043V9.08133C27.0102 9.07537 27.0102 9.06345 27.0102 9.05749C27.0102 9.03961 27.0102 9.02769 27.0102 9.00981C27.0102 8.99789 27.0102 8.98597 27.0045 8.97405C27.0045 8.96213 26.9987 8.94425 26.9987 8.93233C26.9987 8.92041 26.993 8.90849 26.993 8.89657C26.9872 8.88465 26.9872 8.87273 26.9814 8.85485C26.9757 8.84293 26.9757 8.83101 26.9699 8.81909C26.9642 8.80717 26.9642 8.79525 26.9584 8.78333C26.9527 8.77141 26.9469 8.75949 26.9412 8.7416C26.9354 8.72968 26.9297 8.71776 26.9239 8.7118C26.9181 8.69988 26.9124 8.68796 26.9066 8.67604C26.9009 8.66412 26.8951 8.65816 26.8894 8.64624C26.8836 8.63432 26.8721 8.6224 26.8664 8.61048C26.8606 8.59856 26.8548 8.5926 26.8433 8.58068C26.8376 8.56876 26.8261 8.5628 26.8203 8.55088C26.8146 8.53896 26.8031 8.533 26.7973 8.52108C26.7915 8.50916 26.78 8.5032 26.7743 8.49724C26.7628 8.48532 26.757 8.47936 26.7455 8.46744C26.734 8.46148 26.7282 8.44956 26.7167 8.4436C26.7052 8.43764 26.6937 8.42572 26.6822 8.41976C26.6707 8.4138 26.6649 8.40784 26.6534 8.40188C26.6419 8.39592 26.6304 8.38996 26.6189 8.37804C26.6074 8.37208 26.5959 8.36612 26.5844 8.36016C26.5729 8.3542 26.5614 8.34824 26.5499 8.34228C26.5383 8.33632 26.5268 8.33036 26.5153 8.3244C26.5038 8.31844 26.4923 8.31844 26.4808 8.31248C26.4693 8.30652 26.452 8.30056 26.4405 8.30056C26.429 8.30056 26.4175 8.2946 26.4117 8.2946C26.3945 8.28864 26.383 8.28864 26.3657 8.28864C26.36 8.28864 26.3542 8.28268 26.3427 8.28268L6.78863 5.48739V2.6623C6.78863 2.6325 6.78863 2.6027 6.78287 2.57886C6.78287 2.5729 6.78287 2.56694 6.77712 2.55502C6.77712 2.53714 6.77136 2.51926 6.77136 2.50138C6.76561 2.4835 6.76561 2.47158 6.75985 2.4537C6.75985 2.44178 6.7541 2.43582 6.7541 2.4239C6.74834 2.40602 6.74259 2.38814 6.73683 2.37026C6.73683 2.3643 6.73108 2.35238 6.73108 2.34642C6.72533 2.32854 6.71957 2.31662 6.70806 2.29874C6.70231 2.29278 6.70231 2.28086 6.69655 2.2749C6.6908 2.26298 6.68504 2.25106 6.67353 2.23914C6.66778 2.22721 6.66202 2.22125 6.65627 2.20933C6.65052 2.19741 6.64476 2.19145 6.63901 2.17953C6.63325 2.16761 6.62174 2.15569 6.61599 2.14377C6.61023 2.13781 6.60448 2.13185 6.59872 2.12589C6.58721 2.11397 6.57571 2.10205 6.5642 2.09013C6.55844 2.08417 6.55269 2.07821 6.54693 2.07225C6.53542 2.06033 6.52391 2.04841 6.50665 2.03649C6.5009 2.03053 6.48939 2.02457 6.48363 2.01861C6.47212 2.00669 6.46061 2.00073 6.44911 1.98881C6.43184 1.97689 6.41458 1.96497 6.40307 1.95901C6.39731 1.95305 6.39156 1.95305 6.38581 1.94709C6.36279 1.93517 6.33401 1.92325 6.311 1.91133L2.06987 0.0636986C1.6728 -0.109144 1.21819 0.0815789 1.05131 0.492826C0.884426 0.904073 1.06857 1.37492 1.46564 1.54776L5.22913 3.19275V6.84033V7.41846V11.8528V15.8162V20.8227C5.22913 22.4916 6.4376 23.8743 7.99709 24.0829C7.71511 24.5716 7.54823 25.1438 7.54823 25.7517C7.54823 27.5457 8.9581 29 10.6845 29C12.4109 29 13.8207 27.5398 13.8207 25.7517C13.8207 25.1557 13.6653 24.5895 13.3891 24.1127H20.3752C20.099 24.5955 19.9436 25.1557 19.9436 25.7517C19.9436 27.5457 21.3535 29 23.0798 29C24.8062 29 26.2161 27.5398 26.2161 25.7517C26.2161 23.9637 24.8062 22.5035 23.0798 22.5035H8.40566C7.50795 22.5035 6.78287 21.7465 6.78287 20.8227V18.6413C7.25475 18.9274 7.81294 19.0943 8.40566 19.0943ZM12.2727 25.7458C12.2727 26.6517 11.5592 27.3848 10.6902 27.3848C9.82129 27.3848 9.10772 26.6457 9.10772 25.7458C9.10772 24.8458 9.82129 24.1067 10.6902 24.1067C11.5592 24.1067 12.2727 24.8398 12.2727 25.7458ZM24.6681 25.7458C24.6681 26.6517 23.9545 27.3848 23.0856 27.3848C22.2167 27.3848 21.5031 26.6457 21.5031 25.7458C21.5031 24.8458 22.2167 24.1067 23.0856 24.1067C23.9545 24.1067 24.6681 24.8398 24.6681 25.7458ZM23.8337 17.4851H8.40566C7.50795 17.4851 6.78287 16.7281 6.78287 15.8043V11.8409V7.40654V7.10854L25.4565 9.7727V15.7984C25.4565 16.7341 24.7257 17.4851 23.8337 17.4851Z" fill="#595959"/>
</svg>
