<svg width="344" height="37" viewBox="0 0 344 37" fill="none" xmlns="http://www.w3.org/2000/svg">
<g clip-path="url(#clip0_15_212)">
<path d="M25.5 36H21.5L13.3 22H3.5V36H0V0.999993H14C16.8667 0.999993 19.3333 2.03332 21.4 4.09999C23.4667 6.16667 24.5 8.63333 24.5 11.5C24.5 13.9 23.7833 16.0167 22.35 17.85C20.9833 19.65 19.1833 20.8833 16.95 21.55L25.5 36ZM14 4.3H3.5V18.7H14C15.9333 18.7 17.5833 18 18.95 16.6C20.3167 15.1333 21 13.4333 21 11.5C21 9.53333 20.3167 7.83332 18.95 6.39999C17.5833 4.99999 15.9333 4.3 14 4.3ZM33.2734 24.1V0.999993H36.7734V24.1C36.7734 26.9333 37.6068 29.1667 39.2734 30.8C40.9734 32.4 43.3068 33.2 46.2734 33.2C49.2401 33.2 51.5568 32.4 53.2234 30.8C54.9234 29.1667 55.7734 26.9333 55.7734 24.1V0.999993H59.2734V24.1C59.2734 27.9 58.0734 30.9333 55.6734 33.2C53.2401 35.4667 50.1068 36.6 46.2734 36.6C42.4401 36.6 39.3068 35.4667 36.8734 33.2C34.4734 30.9333 33.2734 27.9 33.2734 24.1ZM81.2813 36.6C78.0813 36.6 75.3313 35.85 73.0313 34.35C70.7646 32.8167 69.1813 30.7167 68.2813 28.05L71.2813 26.3C71.9146 28.5 73.0813 30.2 74.7813 31.4C76.5146 32.6 78.6979 33.2 81.3313 33.2C83.8979 33.2 85.9146 32.6333 87.3813 31.5C88.8479 30.3667 89.5813 28.8333 89.5813 26.9C89.5813 25.0667 88.9146 23.6833 87.5813 22.75C86.2813 21.8167 84.0813 20.85 80.9812 19.85C77.2813 18.6167 74.8813 17.65 73.7813 16.95C71.1146 15.35 69.7813 13.0333 69.7813 10C69.7813 7.03333 70.8146 4.7 72.8812 2.99999C74.9146 1.26666 77.4646 0.399994 80.5313 0.399994C83.1646 0.399994 85.4979 1.1 87.5313 2.49999C89.5646 3.86666 91.0813 5.68332 92.0813 7.94999L89.1313 9.6C87.5313 5.73333 84.6646 3.79999 80.5313 3.79999C78.3313 3.79999 76.5646 4.34999 75.2313 5.44999C73.9313 6.51665 73.2813 7.98333 73.2813 9.85C73.2813 11.6167 73.8813 12.9167 75.0813 13.75C76.3146 14.6167 78.2979 15.5 81.0313 16.4L83.7313 17.35C84.2979 17.5167 85.0979 17.8167 86.1313 18.25C87.2646 18.6833 88.0479 19.05 88.4813 19.35C90.2479 20.4167 91.3646 21.4 91.8313 22.3C92.6646 23.6333 93.0813 25.1333 93.0813 26.8C93.0813 29.7667 91.9979 32.15 89.8313 33.95C87.6646 35.7167 84.8146 36.6 81.2813 36.6ZM112.32 36.6C109.12 36.6 106.37 35.85 104.07 34.35C101.804 32.8167 100.22 30.7167 99.3203 28.05L102.32 26.3C102.954 28.5 104.12 30.2 105.82 31.4C107.554 32.6 109.737 33.2 112.37 33.2C114.937 33.2 116.954 32.6333 118.42 31.5C119.887 30.3667 120.62 28.8333 120.62 26.9C120.62 25.0667 119.954 23.6833 118.62 22.75C117.32 21.8167 115.12 20.85 112.02 19.85C108.32 18.6167 105.92 17.65 104.82 16.95C102.154 15.35 100.82 13.0333 100.82 10C100.82 7.03333 101.854 4.7 103.92 2.99999C105.954 1.26666 108.504 0.399994 111.57 0.399994C114.204 0.399994 116.537 1.1 118.57 2.49999C120.604 3.86666 122.12 5.68332 123.12 7.94999L120.17 9.6C118.57 5.73333 115.704 3.79999 111.57 3.79999C109.37 3.79999 107.604 4.34999 106.27 5.44999C104.97 6.51665 104.32 7.98333 104.32 9.85C104.32 11.6167 104.92 12.9167 106.12 13.75C107.354 14.6167 109.337 15.5 112.07 16.4L114.77 17.35C115.337 17.5167 116.137 17.8167 117.17 18.25C118.304 18.6833 119.087 19.05 119.52 19.35C121.287 20.4167 122.404 21.4 122.87 22.3C123.704 23.6333 124.12 25.1333 124.12 26.8C124.12 29.7667 123.037 32.15 120.87 33.95C118.704 35.7167 115.854 36.6 112.32 36.6Z" fill="white"/>
<path d="M161.279 1H165.629V36H162.129V6.3L149.879 26.8H149.379L137.129 6.3V36H133.629V1H137.979L149.629 20.5L161.279 1ZM204.119 36H200.419L197.169 27.4H180.569L177.319 36H173.619L187.069 1H190.669L204.119 36ZM188.869 5.35L181.819 24.1H195.919L188.869 5.35ZM215.613 1V32.7H231.613V36H212.113V1H215.613ZM243.625 1V32.7H259.625V36H240.125V1H243.625ZM274.15 33.75C274.15 34.5167 273.884 35.1667 273.35 35.7C272.817 36.2333 272.167 36.5 271.4 36.5C270.634 36.5 269.984 36.2333 269.45 35.7C268.917 35.1667 268.65 34.5167 268.65 33.75C268.65 32.9833 268.917 32.3333 269.45 31.8C269.984 31.2667 270.634 31 271.4 31C272.167 31 272.817 31.2667 273.35 31.8C273.884 32.3333 274.15 32.9833 274.15 33.75ZM310.174 36H306.174L297.974 22H288.174V36H284.674V1H298.674C301.54 1 304.007 2.03333 306.074 4.1C308.14 6.16667 309.174 8.63333 309.174 11.5C309.174 13.9 308.457 16.0167 307.024 17.85C305.657 19.65 303.857 20.8833 301.624 21.55L310.174 36ZM298.674 4.3H288.174V18.7H298.674C300.607 18.7 302.257 18 303.624 16.6C304.99 15.1333 305.674 13.4333 305.674 11.5C305.674 9.53333 304.99 7.83333 303.624 6.4C302.257 5 300.607 4.3 298.674 4.3ZM317.947 24.1V1H321.447V24.1C321.447 26.9333 322.281 29.1667 323.947 30.8C325.647 32.4 327.981 33.2 330.947 33.2C333.914 33.2 336.231 32.4 337.897 30.8C339.597 29.1667 340.447 26.9333 340.447 24.1V1H343.947V24.1C343.947 27.9 342.747 30.9333 340.347 33.2C337.914 35.4667 334.781 36.6 330.947 36.6C327.114 36.6 323.981 35.4667 321.547 33.2C319.147 30.9333 317.947 27.9 317.947 24.1Z" fill="white"/>
</g>
<defs>
<clipPath id="clip0_15_212">
<rect width="344" height="37" fill="white"/>
</clipPath>
</defs>
</svg>
