<svg width="344" height="37" viewBox="0 0 344 37" fill="none" xmlns="http://www.w3.org/2000/svg">
<g clip-path="url(#clip0_13_5)">
<path d="M25.5 35.9999H21.5L13.3 21.9999H3.5V35.9999H0V0.999901H14C16.8667 0.999901 19.3333 2.03323 21.4 4.0999C23.4667 6.16657 24.5 8.63323 24.5 11.4999C24.5 13.8999 23.7833 16.0166 22.35 17.8499C20.9833 19.6499 19.1833 20.8832 16.95 21.5499L25.5 35.9999ZM14 4.2999H3.5V18.6999H14C15.9333 18.6999 17.5833 17.9999 18.95 16.5999C20.3167 15.1332 21 13.4332 21 11.4999C21 9.53323 20.3167 7.83323 18.95 6.3999C17.5833 4.9999 15.9333 4.2999 14 4.2999ZM33.2734 24.0999V0.999901H36.7734V24.0999C36.7734 26.9332 37.6068 29.1666 39.2734 30.7999C40.9734 32.3999 43.3068 33.1999 46.2734 33.1999C49.2401 33.1999 51.5568 32.3999 53.2234 30.7999C54.9234 29.1666 55.7734 26.9332 55.7734 24.0999V0.999901H59.2734V24.0999C59.2734 27.8999 58.0734 30.9332 55.6734 33.1999C53.2401 35.4666 50.1068 36.5999 46.2734 36.5999C42.4401 36.5999 39.3068 35.4666 36.8734 33.1999C34.4734 30.9332 33.2734 27.8999 33.2734 24.0999ZM81.2813 36.5999C78.0813 36.5999 75.3313 35.8499 73.0313 34.3499C70.7646 32.8166 69.1813 30.7166 68.2813 28.0499L71.2813 26.2999C71.9146 28.4999 73.0813 30.1999 74.7813 31.3999C76.5146 32.5999 78.6979 33.1999 81.3313 33.1999C83.8979 33.1999 85.9146 32.6332 87.3813 31.4999C88.8479 30.3666 89.5813 28.8332 89.5813 26.8999C89.5813 25.0666 88.9146 23.6832 87.5813 22.7499C86.2813 21.8166 84.0813 20.8499 80.9812 19.8499C77.2813 18.6166 74.8813 17.6499 73.7813 16.9499C71.1146 15.3499 69.7813 13.0332 69.7813 9.9999C69.7813 7.03323 70.8146 4.6999 72.8812 2.9999C74.9146 1.26657 77.4646 0.399902 80.5313 0.399902C83.1646 0.399902 85.4979 1.0999 87.5313 2.4999C89.5646 3.86657 91.0813 5.68323 92.0813 7.9499L89.1313 9.5999C87.5313 5.73323 84.6646 3.7999 80.5313 3.7999C78.3313 3.7999 76.5646 4.3499 75.2313 5.4499C73.9313 6.51656 73.2813 7.98323 73.2813 9.8499C73.2813 11.6166 73.8813 12.9166 75.0813 13.7499C76.3146 14.6166 78.2979 15.4999 81.0313 16.3999L83.7313 17.3499C84.2979 17.5166 85.0979 17.8166 86.1313 18.2499C87.2646 18.6832 88.0479 19.0499 88.4813 19.3499C90.2479 20.4166 91.3646 21.3999 91.8313 22.2999C92.6646 23.6332 93.0813 25.1332 93.0813 26.7999C93.0813 29.7666 91.9979 32.1499 89.8313 33.9499C87.6646 35.7166 84.8146 36.5999 81.2813 36.5999ZM112.32 36.5999C109.12 36.5999 106.37 35.8499 104.07 34.3499C101.804 32.8166 100.22 30.7166 99.3203 28.0499L102.32 26.2999C102.954 28.4999 104.12 30.1999 105.82 31.3999C107.554 32.5999 109.737 33.1999 112.37 33.1999C114.937 33.1999 116.954 32.6332 118.42 31.4999C119.887 30.3666 120.62 28.8332 120.62 26.8999C120.62 25.0666 119.954 23.6832 118.62 22.7499C117.32 21.8166 115.12 20.8499 112.02 19.8499C108.32 18.6166 105.92 17.6499 104.82 16.9499C102.154 15.3499 100.82 13.0332 100.82 9.9999C100.82 7.03323 101.854 4.6999 103.92 2.9999C105.954 1.26657 108.504 0.399902 111.57 0.399902C114.204 0.399902 116.537 1.0999 118.57 2.4999C120.604 3.86657 122.12 5.68323 123.12 7.9499L120.17 9.5999C118.57 5.73323 115.704 3.7999 111.57 3.7999C109.37 3.7999 107.604 4.3499 106.27 5.4499C104.97 6.51656 104.32 7.98323 104.32 9.8499C104.32 11.6166 104.92 12.9166 106.12 13.7499C107.354 14.6166 109.337 15.4999 112.07 16.3999L114.77 17.3499C115.337 17.5166 116.137 17.8166 117.17 18.2499C118.304 18.6832 119.087 19.0499 119.52 19.3499C121.287 20.4166 122.404 21.3999 122.87 22.2999C123.704 23.6332 124.12 25.1332 124.12 26.7999C124.12 29.7666 123.037 32.1499 120.87 33.9499C118.704 35.7166 115.854 36.5999 112.32 36.5999Z" fill="#D60B0B"/>
<path d="M161.279 1H165.629V36H162.129V6.3L149.879 26.8H149.379L137.129 6.3V36H133.629V1H137.979L149.629 20.5L161.279 1ZM204.119 36H200.419L197.169 27.4H180.569L177.319 36H173.619L187.069 1H190.669L204.119 36ZM188.869 5.35L181.819 24.1H195.919L188.869 5.35ZM215.613 1V32.7H231.613V36H212.113V1H215.613ZM243.625 1V32.7H259.625V36H240.125V1H243.625ZM274.15 33.75C274.15 34.5167 273.884 35.1667 273.35 35.7C272.817 36.2333 272.167 36.5 271.4 36.5C270.634 36.5 269.984 36.2333 269.45 35.7C268.917 35.1667 268.65 34.5167 268.65 33.75C268.65 32.9833 268.917 32.3333 269.45 31.8C269.984 31.2667 270.634 31 271.4 31C272.167 31 272.817 31.2667 273.35 31.8C273.884 32.3333 274.15 32.9833 274.15 33.75ZM310.174 36H306.174L297.974 22H288.174V36H284.674V1H298.674C301.54 1 304.007 2.03333 306.074 4.1C308.14 6.16667 309.174 8.63333 309.174 11.5C309.174 13.9 308.457 16.0167 307.024 17.85C305.657 19.65 303.857 20.8833 301.624 21.55L310.174 36ZM298.674 4.3H288.174V18.7H298.674C300.607 18.7 302.257 18 303.624 16.6C304.99 15.1333 305.674 13.4333 305.674 11.5C305.674 9.53333 304.99 7.83333 303.624 6.4C302.257 5 300.607 4.3 298.674 4.3ZM317.947 24.1V1H321.447V24.1C321.447 26.9333 322.281 29.1667 323.947 30.8C325.647 32.4 327.981 33.2 330.947 33.2C333.914 33.2 336.231 32.4 337.897 30.8C339.597 29.1667 340.447 26.9333 340.447 24.1V1H343.947V24.1C343.947 27.9 342.747 30.9333 340.347 33.2C337.914 35.4667 334.781 36.6 330.947 36.6C327.114 36.6 323.981 35.4667 321.547 33.2C319.147 30.9333 317.947 27.9 317.947 24.1Z" fill="#1FA4AC"/>
</g>
<defs>
<clipPath id="clip0_13_5">
<rect width="344" height="37" fill="white"/>
</clipPath>
</defs>
</svg>
