<svg width="26" height="23" viewBox="0 0 26 23" fill="none" xmlns="http://www.w3.org/2000/svg">
<path d="M25.1452 1.48337C24.8398 1.10991 24.3825 0.904297 23.8572 0.904297C23.5716 0.904297 23.2691 0.964378 22.9582 1.08321L1.79621 9.1614C0.673165 9.58998 0.521913 10.2331 0.53164 10.5784C0.541368 10.9236 0.72886 11.5572 1.87441 11.9217C1.88128 11.9238 1.88815 11.9259 1.89501 11.9278L6.28458 13.184L8.65847 19.9723C8.98215 20.8977 9.70866 21.4726 10.5548 21.4726C11.0882 21.4726 11.613 21.249 12.0722 20.8264L14.7874 18.3264L18.7255 21.4974C18.7258 21.4977 18.7264 21.4979 18.7268 21.4983L18.7642 21.5285C18.7676 21.5311 18.7712 21.534 18.7747 21.5367C19.2124 21.8762 19.6902 22.0555 20.1569 22.0556H20.1571C21.069 22.0556 21.7951 21.3806 22.0067 20.3362L25.474 3.21505C25.6133 2.52783 25.4965 1.9129 25.1452 1.48337ZM7.75305 12.9454L16.2219 8.61895L10.9486 14.2222C10.8622 14.3139 10.801 14.4263 10.7709 14.5485L9.75405 18.6672L7.75305 12.9454ZM11.0798 19.7487C11.0448 19.7809 11.0095 19.8097 10.9742 19.8363L11.9176 16.0155L13.6336 17.3973L11.0798 19.7487ZM24.0384 2.92418L20.571 20.0455C20.5376 20.2093 20.431 20.5906 20.1569 20.5906C20.0215 20.5906 19.8514 20.5168 19.6772 20.3827L15.2148 16.7896C15.2142 16.7891 15.2135 16.7885 15.2127 16.7881L12.5575 14.65L20.1832 6.547C20.4274 6.2876 20.4495 5.8903 20.2357 5.60534C20.0217 5.32038 19.6339 5.23074 19.3167 5.39286L6.77439 11.8004L2.32512 10.5274L23.4807 2.45173C23.6594 2.38345 23.7841 2.36914 23.8572 2.36914C23.902 2.36914 23.9817 2.37448 24.0113 2.41091C24.0502 2.4584 24.0998 2.62034 24.0384 2.92418Z" fill="white"/>
</svg>
