<svg width="25" height="26" viewBox="0 0 25 26" fill="none" xmlns="http://www.w3.org/2000/svg">
<g clip-path="url(#clip0_15_224)">
<path d="M23.9494 9.04404C23.9496 6.6961 23.0293 4.48281 21.3583 2.81178C19.6873 1.14075 17.474 0.220459 15.1258 0.220459H9.8978C9.89761 0.220459 9.89761 0.220459 9.89761 0.220459C7.54986 0.220459 5.33638 1.14075 3.66554 2.81159C1.99451 4.48281 1.07422 6.6961 1.07422 9.04404V13.1536C1.07422 14.9721 1.62888 16.7211 2.6783 18.2121C3.60413 19.5274 4.84924 20.5549 6.30093 21.2063V23.5668C6.30093 24.7873 6.98433 25.2205 7.5695 25.2205C7.98759 25.2205 8.40569 25.0141 8.81271 24.6072L11.4426 21.9774L15.126 21.9772C17.474 21.9772 19.6873 21.0569 21.3583 19.3861C23.0293 17.715 23.9496 15.5016 23.9496 13.1536L23.9494 9.04404ZM15.126 20.5124L11.1393 20.5126C10.9449 20.5126 10.7588 20.5896 10.6215 20.7269L7.77702 23.5714C7.7734 23.5752 7.76958 23.5788 7.76577 23.5824C7.76577 23.5773 7.76577 23.5719 7.76577 23.5668V20.7174C7.76577 20.4136 7.57828 20.1414 7.29446 20.033C4.45023 18.9478 2.53925 16.1831 2.53925 13.1536V9.04404C2.53925 7.0873 3.30715 5.24174 4.70142 3.84728C6.0957 2.4532 7.94106 1.6853 9.8978 1.6853H15.1258C17.0826 1.6853 18.9281 2.4532 20.3224 3.84747C21.7169 5.24194 22.4848 7.08749 22.4846 9.04404L22.4848 13.1536C22.4846 17.2113 19.1835 20.5124 15.126 20.5124Z" fill="white"/>
<path d="M14.4596 12.1997C14.1737 11.9136 13.71 11.9136 13.4239 12.1997L12.8323 12.7912L10.5396 10.4988L11.1313 9.9073C11.2686 9.76997 11.3459 9.58363 11.3459 9.38927C11.3459 9.1951 11.2686 9.00875 11.1313 8.87142L8.35762 6.09776C8.22029 5.96043 8.03413 5.88318 7.83977 5.88318C7.6456 5.88318 7.45926 5.96043 7.32193 6.09776L5.38025 8.03944C4.33025 9.08943 4.33025 10.7982 5.38044 11.8488L11.4822 17.951C11.9896 18.4581 12.6661 18.7374 13.3869 18.7374C14.1079 18.7374 14.7844 18.4581 15.2918 17.951L17.2335 16.0095C17.3708 15.872 17.448 15.6858 17.448 15.4914C17.448 15.2973 17.3708 15.1109 17.2335 14.9736L14.4596 12.1997ZM14.2559 16.9149C14.0253 17.1455 13.7167 17.2725 13.3869 17.2725C13.0571 17.2725 12.7485 17.1455 12.5179 16.9149L6.41632 10.8129C5.93719 10.3338 5.937 9.55406 6.41613 9.07513L7.83977 7.65129L9.57756 9.38927L8.9859 9.98074C8.84857 10.1181 8.77132 10.3044 8.77132 10.4986C8.77132 10.6929 8.84857 10.8791 8.9859 11.0166L12.3142 14.3449C12.6003 14.6309 13.064 14.631 13.3501 14.3449L13.9418 13.7535L15.6795 15.4913L14.2559 16.9149Z" fill="white"/>
<path d="M12.6896 3.46048C12.285 3.46048 11.9572 3.78835 11.9572 4.1929C11.9572 4.59726 12.285 4.92532 12.6896 4.92532C14.3658 4.92532 15.9418 5.57802 17.127 6.76344C18.3124 7.94866 18.9651 9.52451 18.9651 11.2009C18.9651 11.6052 19.293 11.9333 19.6976 11.9333C20.1019 11.9333 20.43 11.6054 20.43 11.2009C20.43 9.13332 19.6249 7.18954 18.1629 5.72755C16.7009 4.26557 14.7571 3.46048 12.6896 3.46048Z" fill="white"/>
<path d="M15.8272 11.2007C15.8272 11.605 16.1552 11.9331 16.5596 11.9331C16.9641 11.9331 17.292 11.605 17.292 11.2007C17.292 8.66296 15.2273 6.59845 12.6896 6.59845C12.285 6.59845 11.9572 6.92632 11.9572 7.33087C11.9572 7.73542 12.285 8.06329 12.6896 8.06329C14.4197 8.06329 15.8272 9.47073 15.8272 11.2007Z" fill="white"/>
</g>
<defs>
<clipPath id="clip0_15_224">
<rect width="25" height="25" fill="white" transform="translate(0 0.220459)"/>
</clipPath>
</defs>
</svg>
